<svg xmlns="http://www.w3.org/2000/svg" xmlns:xlink="http://www.w3.org/1999/xlink" width="60" height="60" viewBox="0 0 60 60">
    <defs>
        <rect id="a" width="60" height="60" rx="14.063"/>
    </defs>
    <g fill="none" fill-rule="evenodd">
        <g>
            <use fill="#FFF" xlink:href="#a"/>
            <rect width="59.5" height="59.5" x=".25" y=".25" stroke="#A6A6A6" stroke-width=".5" rx="14.063"/>
        </g>
        <g transform="translate(15.82 8.086)">
            <path fill="#FF4870" d="M0 7.55h11.088c2.069 0 4.137.304 6.206.912a16.661 16.661 0 0 1 5.613 2.873c1.673 1.307 3.026 2.979 4.06 5.015 1.035 2.037 1.552 4.484 1.552 7.341 0 2.767-.517 5.16-1.551 7.182-1.035 2.021-2.388 3.693-4.061 5.016a17.45 17.45 0 0 1-5.613 2.963 20.5 20.5 0 0 1-6.206.98H0V7.55zm4.517 28.316h5.659c1.947 0 3.749-.274 5.407-.821 1.658-.547 3.088-1.337 4.29-2.371 1.2-1.034 2.136-2.31 2.806-3.83.669-1.52 1.003-3.237 1.003-5.153 0-2.006-.334-3.769-1.003-5.289-.67-1.52-1.605-2.789-2.807-3.807-1.201-1.018-2.631-1.793-4.29-2.325-1.657-.532-3.46-.798-5.406-.798H4.517v24.394z"/>
            <ellipse cx="27.719" cy="3.344" fill="#00DBA3" rx="3.346" ry="3.344"/>
        </g>
    </g>
</svg>
