<svg xmlns="http://www.w3.org/2000/svg" xmlns:xlink="http://www.w3.org/1999/xlink" width="70" height="70" viewBox="0 0 70 70">
    <defs>
        <rect id="a" width="70" height="70" rx="14.063"/>
    </defs>
    <g fill="none" fill-rule="evenodd">
        <g>
            <use fill="#FFF" xlink:href="#a"/>
            <rect width="69.5" height="69.5" x=".25" y=".25" stroke="#A6A6A6" stroke-width=".5" rx="14.063"/>
        </g>
        <g transform="translate(18.457 9.434)">
            <path fill="#FF4870" d="M0 8.809h12.936c2.414 0 4.827.354 7.24 1.064a19.438 19.438 0 0 1 6.548 3.351c1.952 1.525 3.532 3.475 4.738 5.852 1.207 2.376 1.81 5.23 1.81 8.564 0 3.227-.603 6.02-1.81 8.378-1.206 2.359-2.786 4.31-4.738 5.852a20.357 20.357 0 0 1-6.548 3.458c-2.413.762-4.826 1.143-7.24 1.143H0V8.81zm5.27 33.034h6.602c2.271 0 4.374-.319 6.308-.957 1.934-.639 3.602-1.56 5.004-2.766 1.402-1.206 2.493-2.696 3.274-4.469.781-1.773 1.171-3.777 1.171-6.01 0-2.342-.39-4.398-1.17-6.172-.782-1.773-1.873-3.253-3.275-4.442-1.402-1.188-3.07-2.092-5.004-2.713-1.934-.62-4.037-.93-6.308-.93H5.27v28.46z"/>
            <ellipse cx="32.339" cy="3.901" fill="#00DBA3" rx="3.904" ry="3.901"/>
        </g>
    </g>
</svg>
