<svg xmlns="http://www.w3.org/2000/svg" xmlns:xlink="http://www.w3.org/1999/xlink" width="92" height="33" viewBox="0 0 92 33">
    <defs>
        <linearGradient id="a" x1="50%" x2="50%" y1="0%" y2="100%">
            <stop offset="0%" stop-color="#B4ED50"/>
            <stop offset="100%" stop-color="#5CDD27"/>
        </linearGradient>
        <linearGradient id="c" x1="50%" x2="50%" y1="0%" y2="38.913%">
            <stop offset="0%" stop-color="#FBDA09"/>
            <stop offset="100%" stop-color="#FFBC00"/>
        </linearGradient>
        <path id="b" d="M13.07 2.877c.895-1.674 2.35-1.665 3.24 0L29.8 28.13c.894 1.674.072 3.031-1.836 3.031H1.416c-1.908 0-2.725-1.366-1.835-3.03L13.07 2.876z"/>
        <linearGradient id="d" x1="0%" x2="69.306%" y1="58.476%" y2="39.083%">
            <stop offset="0%" stop-color="#01E2FF"/>
            <stop offset="100%" stop-color="#01C4FF"/>
        </linearGradient>
        <linearGradient id="f" x1="20.281%" x2="83.82%" y1="20.102%" y2="83.621%">
            <stop offset="0%" stop-color="#28D781"/>
            <stop offset="100%" stop-color="#02F076"/>
        </linearGradient>
        <linearGradient id="g" x1="74.488%" x2="10.108%" y1="17.43%" y2="91.184%">
            <stop offset="0%" stop-color="#F2414E"/>
            <stop offset="100%" stop-color="#E02554"/>
        </linearGradient>
    </defs>
    <g fill="none" fill-rule="evenodd">
        <path fill="url(#a)" fill-rule="nonzero" d="M31.724 14.34c-.05-.45-.572-.787-1.023-.787-1.458 0-2.752-.86-3.295-2.189a3.569 3.569 0 0 1 .89-3.95.89.89 0 0 0 .097-1.205 15.785 15.785 0 0 0-2.52-2.556.884.884 0 0 0-1.21.098c-.948 1.055-2.652 1.447-3.969.895a3.55 3.55 0 0 1-2.149-3.468.885.885 0 0 0-.781-.934 15.817 15.817 0 0 0-3.58-.009.888.888 0 0 0-.788.914c.052 1.482-.822 2.85-2.179 3.409-1.3.533-2.992.144-3.939-.901a.884.884 0 0 0-1.2-.101 15.849 15.849 0 0 0-2.575 2.555.891.891 0 0 0 .095 1.214 3.55 3.55 0 0 1 .89 3.986c-.55 1.313-1.907 2.16-3.462 2.16a.867.867 0 0 0-.92.784c-.14 1.2-.14 2.423-.006 3.633.05.45.587.786 1.043.786 1.386-.036 2.716.825 3.275 2.189a3.564 3.564 0 0 1-.89 3.95.89.89 0 0 0-.097 1.204 15.841 15.841 0 0 0 2.517 2.557.882.882 0 0 0 1.211-.097c.952-1.057 2.656-1.448 3.967-.895a3.545 3.545 0 0 1 2.153 3.467c-.028.47.316.88.78.933a15.71 15.71 0 0 0 3.58.01.888.888 0 0 0 .788-.915 3.552 3.552 0 0 1 2.178-3.407c1.309-.537 2.993-.144 3.94.9a.886.886 0 0 0 1.201.101 15.87 15.87 0 0 0 2.574-2.555.89.89 0 0 0-.095-1.215 3.55 3.55 0 0 1-.891-3.984 3.561 3.561 0 0 1 3.255-2.166l.197.005c.456.037.876-.316.931-.783.14-1.201.142-2.423.007-3.633zM15.912 25.324c-5.066 0-9.173-4.124-9.173-9.21 0-5.087 4.107-9.21 9.173-9.21s9.174 4.123 9.174 9.21a9.191 9.191 0 0 1-1.298 4.722l-4.017-4.033c.291-.688.445-1.435.444-2.205a5.62 5.62 0 0 0-1.647-3.992 5.575 5.575 0 0 0-3.976-1.654c-.501 0-1 .067-1.483.2a.638.638 0 0 0-.44.445.626.626 0 0 0 .176.61s1.983 2.006 2.647 2.672c.07.07.069.237.06.297l-.007.043c-.067.733-.196 1.612-.302 1.95l-.043.04-.044.046c-.34.11-1.23.24-1.97.307v-.004l-.034.009a.423.423 0 0 1-.337-.128c-.69-.694-2.595-2.593-2.595-2.593a.646.646 0 0 0-.463-.207.63.63 0 0 0-.593.48 5.68 5.68 0 0 0 1.451 5.471 5.577 5.577 0 0 0 3.977 1.654c.767 0 1.51-.154 2.196-.446l4.06 4.077a9.1 9.1 0 0 1-4.936 1.449z" transform="translate(60.07)"/>
        <path fill="#D8D8D8" d="M43.307 0h1v32.195h-1z" opacity=".34"/>
        <g transform="translate(1 .805)">
            <mask id="e" fill="#fff">
                <use xlink:href="#b"/>
            </mask>
            <use fill="url(#c)" transform="rotate(90 14.69 16.396)" xlink:href="#b"/>
            <path fill="url(#d)" d="M-.133-2.018l16.098 18.112L-.34 34.92z" mask="url(#e)"/>
            <path fill="url(#f)" d="M-2.339-3.335l18.391 19.472 5.468-5.554z" mask="url(#e)"/>
            <path fill="url(#g)" d="M16.055 16.133l8.37 8.984L-.58 34.1z" mask="url(#e)"/>
        </g>
    </g>
</svg>
