<?xml version="1.0" encoding="UTF-8"?>
<svg width="32px" height="33px" viewBox="0 0 32 33" version="1.1" xmlns="http://www.w3.org/2000/svg" xmlns:xlink="http://www.w3.org/1999/xlink">
    <!-- Generator: Sketch 44 (41411) - http://www.bohemiancoding.com/sketch -->
    <title>repairing-service</title>
    <desc>Created with Sketch.</desc>
    <defs>
        <linearGradient x1="50%" y1="0%" x2="50%" y2="100%" id="linearGradient-1">
            <stop stop-color="#B4ED50" offset="0%"></stop>
            <stop stop-color="#5CDD27" offset="100%"></stop>
        </linearGradient>
    </defs>
    <g id="Symbols" stroke="none" stroke-width="1" fill="none" fill-rule="evenodd">
        <g id="warning-setup-gp-copy" transform="translate(-173.000000, -22.000000)" fill-rule="nonzero" fill="url(#linearGradient-1)">
            <g id="Group-2" transform="translate(114.000000, 22.000000)">
                <g id="repairing-service" transform="translate(59.070175, 0.000000)">
                    <path d="M31.7240699,14.339956 C31.6738355,13.8908824 31.1520856,13.5530409 30.7009392,13.5530409 C29.2429023,13.5530409 27.9489186,12.6938595 27.4062492,11.364049 C26.8522943,10.0023197 27.2097157,8.41453365 28.2960178,7.4139977 C28.6381624,7.09992254 28.6798639,6.57402282 28.393046,6.20896054 C27.6465487,5.25747723 26.7984815,4.39788129 25.8722414,3.65297184 C25.5098654,3.3611431 24.9773805,3.40176698 24.6628993,3.75121533 C23.7145009,4.80577829 22.010797,5.19764681 20.6942423,4.64618444 C19.3247005,4.06763948 18.4602556,2.67385324 18.5451724,1.17781639 C18.573111,0.7076018 18.2306912,0.299013922 17.7639927,0.244434209 C16.5752949,0.10625772 15.3761373,0.102250602 14.1839988,0.235038208 C13.7232184,0.286163509 13.3810738,0.685079033 13.3963506,1.14935204 C13.4479613,2.63074218 12.5737447,3.99993301 11.2174153,4.55775149 C9.91668784,5.09125092 8.22482002,4.7022841 7.27834846,3.65697896 C6.96551875,3.31264315 6.44239262,3.27036114 6.07753932,3.55597195 C5.1240487,4.30723752 4.25685118,5.16738616 3.50347247,6.11113158 C3.20991077,6.47799016 3.25326376,7.00969329 3.59829855,7.32487386 C4.70607078,8.33204229 5.06321688,9.9335078 4.48806715,11.3111274 C3.93892922,12.6244949 2.58067302,13.4705496 1.02588324,13.4705496 C0.521336963,13.4542447 0.162264065,13.7945734 0.106524501,14.2552538 C-0.0333061101,15.4550403 -0.0348200242,16.6781786 0.0997807018,17.8877756 C0.150015124,18.3387836 0.687179371,18.6737234 1.1432804,18.6737234 C2.52919994,18.6383503 3.85896703,19.4991898 4.41760133,20.8625772 C4.97348306,22.2243065 4.61564882,23.8114017 3.52755747,24.8133194 C3.18720206,25.1273945 3.14371143,25.6520507 3.43107985,26.0166984 C4.17000756,26.9622401 5.01890048,27.8223888 5.94789322,28.5736543 C6.31260889,28.868523 6.84302934,28.8272082 7.15916213,28.4773453 C8.11127647,27.4202952 9.81470508,27.0291176 11.1258923,27.5816853 C12.4994253,28.1587104 13.3634574,29.5523584 13.279091,31.0488098 C13.2514277,31.5190244 13.5946733,31.9288559 14.0597202,31.982192 C14.6680384,32.0536292 15.2795221,32.0890024 15.8929325,32.0890024 C16.4751013,32.0890024 17.0574077,32.0570836 17.6397142,31.9920025 C18.1010451,31.9408772 18.4426391,31.5415472 18.4270871,31.077136 C18.3738249,29.5964367 19.2499682,28.2271077 20.6046461,27.6703946 C21.9140442,27.1334408 23.5983424,27.5264147 24.5453645,28.5701999 C24.8598457,28.9138449 25.3798064,28.9555742 25.7461736,28.6710688 C26.6980127,27.9217377 27.5635587,27.0620036 28.3202405,26.115771 C28.6140774,25.7496033 28.572376,25.2172093 28.2254144,24.901476 C27.1179174,23.8949984 26.7588445,22.292842 27.3339943,20.9166042 C27.8745992,19.6209233 29.1823457,18.7509641 30.5889096,18.7509641 L30.7857184,18.7562148 C31.2423699,18.7933843 31.6619994,18.4403433 31.7171884,17.9726159 C31.8577072,16.7717241 31.8592211,15.5499675 31.7240699,14.339956 Z M15.9120629,25.3236052 C10.845543,25.3236052 6.73856927,21.2002805 6.73856927,16.1137276 C6.73856927,11.0271747 10.8456806,6.9038501 15.9120629,6.9038501 C20.9784453,6.9038501 25.0855566,11.0271747 25.0855566,16.1137276 C25.0855566,17.8402429 24.6114262,19.4551115 23.7879946,20.8360473 L19.7711676,16.8030901 C20.0619767,16.1146949 20.2155702,15.3684036 20.2154325,14.5982079 C20.2154325,13.0900115 19.6303736,11.6721826 18.5680188,10.6058746 C17.5059392,9.53956663 16.0937326,8.95231655 14.5917922,8.95231655 C14.090549,8.95231655 13.5916455,9.01919397 13.1089822,9.15115252 C12.8975847,9.20904847 12.7247232,9.3839799 12.6684332,9.59663352 C12.6109044,9.81412331 12.6757275,10.037002 12.8450106,10.2070972 C12.8450106,10.2070972 14.8281004,12.2134199 15.4916077,12.8794305 C15.5611101,12.9492097 15.5609725,13.1157123 15.5512008,13.1756809 L15.5450076,13.2194829 C15.4781201,13.9518183 15.3491621,14.8308971 15.2427753,15.1687386 C15.2284619,15.1829708 15.2149743,15.1949921 15.2003857,15.2096389 C15.1851089,15.2249764 15.1710708,15.2397613 15.1563445,15.2549607 C14.8154386,15.3648111 13.9263581,15.4958024 13.185366,15.5624034 L13.1855036,15.5583963 L13.1521975,15.5668251 C13.1462795,15.567516 13.1352692,15.568345 13.1206806,15.568345 C13.0405808,15.568345 12.9227707,15.5458223 12.8156957,15.4384591 C12.1250756,14.7450895 10.2197459,12.8458537 10.2197459,12.8458537 C10.0488113,12.6747912 9.87347247,12.6388653 9.75662583,12.6388653 C9.48425892,12.6388653 9.24038113,12.8364577 9.16358439,13.1198576 C8.63908197,15.0685607 9.19510133,17.164698 10.6150151,18.590403 C11.6773699,19.6568492 13.0897142,20.2440992 14.5919298,20.2440992 C15.3590714,20.2440992 16.1024032,20.0900325 16.787931,19.7980655 L20.8483863,23.8746865 C19.4228297,24.7905203 17.7299985,25.3236052 15.9120629,25.3236052 Z" id="Shape"></path>
                </g>
            </g>
        </g>
    </g>
</svg>